<svg width="1854" height="890" viewBox="0 0 1854 890" fill="none" xmlns="http://www.w3.org/2000/svg">
<g clip-path="url(#clip0_38_462)">
<rect width="1854" height="890" fill="#FACB1D"/>
<circle cx="1698.5" cy="243.5" r="396.5" fill="#F6F6EF"/>
<circle cx="1105.5" cy="873.5" r="233.5" fill="#F6F6EF"/>
<path d="M539.994 -267.103C582.18 -293.013 634.947 -263.516 634.974 -214.008L635.252 287.258C635.279 336.765 582.546 369.153 540.333 345.555L112.919 106.63C70.7053 83.032 70.6711 21.1473 112.857 -4.76282L539.994 -267.103Z" fill="#181817"/>
<path d="M1741.86 215.183C1764.71 227.991 1764.71 260.009 1741.86 272.817L1510.43 402.492C1487.57 415.3 1459 399.291 1459 373.676L1459 114.324C1459 88.7095 1487.57 72.7002 1510.43 85.5076L1741.86 215.183Z" fill="#181817"/>
</g>
<defs>
<clipPath id="clip0_38_462">
<rect width="1854" height="890" fill="white"/>
</clipPath>
</defs>
</svg>
