<svg width="768" height="1300" viewBox="0 0 768 1300" fill="none" xmlns="http://www.w3.org/2000/svg">
<g clip-path="url(#clip0_64_575)">
<rect width="768" height="1300" fill="#FACB1D"/>
<circle cx="807.5" cy="176.5" r="396.5" fill="#F6F6EF"/>
<circle cx="807.5" cy="883.5" r="233.5" fill="#F6F6EF"/>
<path d="M149.994 -355.103C192.18 -381.013 244.947 -351.516 244.974 -302.008L245.252 199.258C245.279 248.765 192.546 281.153 150.333 257.555L-277.081 18.6296C-319.295 -4.96802 -319.329 -66.8527 -277.143 -92.7628L149.994 -355.103Z" fill="#181817"/>
<path d="M728.857 289.183C751.714 301.991 751.714 334.009 728.857 346.817L497.429 476.492C474.571 489.3 446 473.291 446 447.676L446 188.324C446 162.709 474.571 146.7 497.429 159.508L728.857 289.183Z" fill="#181817"/>
</g>
<defs>
<clipPath id="clip0_64_575">
<rect width="768" height="1300" fill="white"/>
</clipPath>
</defs>
</svg>
