<svg width="768" height="1300" viewBox="0 0 768 1300" fill="none" xmlns="http://www.w3.org/2000/svg">
<g clip-path="url(#clip0_64_580)">
<rect width="768" height="1300" fill="#100C23"/>
<path d="M1107.86 -42.6433C1111.22 -42.6433 1111.22 -42.6433 1114.59 -42.6433V-56.0707C1111.22 -56.0707 1111.22 -56.0707 1107.86 -56.0707C936.088 -56.0707 794.632 -197.059 794.632 -368.259C794.632 -371.616 794.632 -371.616 794.632 -374.973H781.16C781.16 -371.616 781.16 -371.616 781.16 -368.259C781.16 -197.059 639.704 -56.0707 467.936 -56.0707C464.568 -56.0707 464.568 -56.0707 461.2 -56.0707V-42.6433C464.568 -42.6433 464.568 -42.6433 467.936 -42.6433C639.704 -42.6433 781.16 98.3451 781.16 269.545C781.16 272.902 781.16 272.902 781.16 276.259H794.632C794.632 272.902 794.632 272.902 794.632 269.545C794.632 94.9882 936.088 -42.6433 1107.86 -42.6433Z" fill="url(#paint0_radial_64_580)"/>
<path d="M521.823 662.298C521.823 658.942 521.823 658.942 521.823 662.298C491.511 658.942 464.567 635.444 464.567 601.875H461.199C461.199 632.087 434.255 658.942 403.943 658.942V662.298C434.255 662.298 461.199 689.153 461.199 719.365H464.567C464.567 685.797 488.143 662.298 521.823 662.298Z" fill="url(#paint1_radial_64_580)"/>
<path d="M228.807 497.812C208.599 494.455 191.759 481.027 191.759 457.529H188.391C188.391 477.67 171.551 494.455 151.343 494.455V497.812C171.551 497.812 188.391 514.596 188.391 534.737H191.759C191.759 514.596 208.599 497.812 228.807 497.812Z" fill="url(#paint2_radial_64_580)"/>
<path d="M835.048 568.306C835.048 568.306 838.416 568.306 835.048 568.306L838.416 561.592H835.048C737.376 561.592 659.912 484.385 659.912 387.036V383.679H653.176V387.036C653.176 484.385 575.712 561.592 478.04 561.592H474.672V568.306H478.04C575.712 568.306 653.176 645.514 653.176 742.863V746.22H659.912V742.863C659.912 645.514 740.744 568.306 835.048 568.306Z" fill="url(#paint3_radial_64_580)"/>
<path d="M531.928 195.694L535.296 185.623H531.928C427.52 185.623 343.32 101.702 343.32 -2.36096V-5.71777H333.216V-2.36096C333.216 101.702 249.016 185.623 144.608 185.623H141.24V195.694H144.608C249.016 195.694 333.216 279.615 333.216 383.678V387.035H343.32V383.678C343.32 279.615 427.52 195.694 531.928 195.694Z" fill="url(#paint4_radial_64_580)"/>
<path d="M501.615 410.533C527.657 410.533 548.767 389.492 548.767 363.537C548.767 337.582 527.657 316.541 501.615 316.541C475.574 316.541 454.463 337.582 454.463 363.537C454.463 389.492 475.574 410.533 501.615 410.533Z" fill="url(#paint5_radial_64_580)"/>
<path d="M663.28 316.541C696.762 316.541 723.904 289.489 723.904 256.118C723.904 222.747 696.762 195.694 663.28 195.694C629.799 195.694 602.656 222.747 602.656 256.118C602.656 289.489 629.799 316.541 663.28 316.541Z" fill="url(#paint6_radial_64_580)"/>
<path d="M13.2555 135.27C28.1363 135.27 40.1995 123.247 40.1995 108.415C40.1995 93.5839 28.1363 81.5605 13.2555 81.5605C-1.62523 81.5605 -13.6885 93.5839 -13.6885 108.415C-13.6885 123.247 -1.62523 135.27 13.2555 135.27Z" fill="url(#paint7_radial_64_580)"/>
<path d="M350.056 524.666C370.517 524.666 387.104 508.134 387.104 487.741C387.104 467.348 370.517 450.815 350.056 450.815C329.595 450.815 313.008 467.348 313.008 487.741C313.008 508.134 329.595 524.666 350.056 524.666Z" fill="url(#paint8_radial_64_580)"/>
<path d="M228.807 44.6355L191.759 84.9179L151.343 44.6355L191.759 7.70996L228.807 44.6355Z" fill="url(#paint9_radial_64_580)"/>
<path d="M63.776 282.973L36.832 313.185L6.52002 282.973L36.832 256.118L63.776 282.973Z" fill="url(#paint10_radial_64_580)"/>
<path d="M575.712 84.918L525.192 135.271L474.672 84.918L525.192 37.9219L575.712 84.918Z" fill="url(#paint11_radial_64_580)"/>
<path d="M232.176 333.326L178.288 387.036L124.4 333.326L178.288 279.616L232.176 333.326Z" fill="url(#paint12_radial_64_580)"/>
<path d="M323.111 588.448L289.431 625.373L252.383 588.448L289.431 554.879L323.111 588.448Z" fill="url(#paint13_radial_64_580)"/>
<path d="M791.264 383.678L754.216 423.961L713.8 383.678L754.216 346.753L791.264 383.678Z" fill="url(#paint14_radial_64_580)"/>
</g>
<defs>
<radialGradient id="paint0_radial_64_580" cx="0" cy="0" r="1" gradientUnits="userSpaceOnUse" gradientTransform="translate(771.689 -20.3974) scale(1049.8 1046.33)">
<stop stop-color="#D3CEE8"/>
<stop offset="0.3641" stop-color="#F3A3C0"/>
<stop offset="0.5422" stop-color="#CF86B6"/>
<stop offset="0.6455" stop-color="#BD79B1"/>
<stop offset="1" stop-color="#5464AC"/>
</radialGradient>
<radialGradient id="paint1_radial_64_580" cx="0" cy="0" r="1" gradientUnits="userSpaceOnUse" gradientTransform="translate(771.689 -20.3963) scale(1049.8 1046.33)">
<stop stop-color="#D3CEE8"/>
<stop offset="0.3641" stop-color="#F3A3C0"/>
<stop offset="0.5422" stop-color="#CF86B6"/>
<stop offset="0.6455" stop-color="#BD79B1"/>
<stop offset="1" stop-color="#5464AC"/>
</radialGradient>
<radialGradient id="paint2_radial_64_580" cx="0" cy="0" r="1" gradientUnits="userSpaceOnUse" gradientTransform="translate(771.689 -20.3968) scale(1049.8 1046.33)">
<stop stop-color="#D3CEE8"/>
<stop offset="0.3641" stop-color="#F3A3C0"/>
<stop offset="0.5422" stop-color="#CF86B6"/>
<stop offset="0.6455" stop-color="#BD79B1"/>
<stop offset="1" stop-color="#5464AC"/>
</radialGradient>
<radialGradient id="paint3_radial_64_580" cx="0" cy="0" r="1" gradientUnits="userSpaceOnUse" gradientTransform="translate(771.689 -20.3969) scale(1049.8 1046.33)">
<stop stop-color="#D3CEE8"/>
<stop offset="0.3641" stop-color="#F3A3C0"/>
<stop offset="0.5422" stop-color="#CF86B6"/>
<stop offset="0.6455" stop-color="#BD79B1"/>
<stop offset="1" stop-color="#5464AC"/>
</radialGradient>
<radialGradient id="paint4_radial_64_580" cx="0" cy="0" r="1" gradientUnits="userSpaceOnUse" gradientTransform="translate(771.689 -20.3973) scale(1049.8 1046.33)">
<stop stop-color="#D3CEE8"/>
<stop offset="0.3641" stop-color="#F3A3C0"/>
<stop offset="0.5422" stop-color="#CF86B6"/>
<stop offset="0.6455" stop-color="#BD79B1"/>
<stop offset="1" stop-color="#5464AC"/>
</radialGradient>
<radialGradient id="paint5_radial_64_580" cx="0" cy="0" r="1" gradientUnits="userSpaceOnUse" gradientTransform="translate(771.689 -20.3975) scale(1049.8 1046.33)">
<stop stop-color="#D3CEE8"/>
<stop offset="0.3641" stop-color="#F3A3C0"/>
<stop offset="0.5422" stop-color="#CF86B6"/>
<stop offset="0.6455" stop-color="#BD79B1"/>
<stop offset="1" stop-color="#5464AC"/>
</radialGradient>
<radialGradient id="paint6_radial_64_580" cx="0" cy="0" r="1" gradientUnits="userSpaceOnUse" gradientTransform="translate(771.689 -20.3969) scale(1049.8 1046.33)">
<stop stop-color="#D3CEE8"/>
<stop offset="0.3641" stop-color="#F3A3C0"/>
<stop offset="0.5422" stop-color="#CF86B6"/>
<stop offset="0.6455" stop-color="#BD79B1"/>
<stop offset="1" stop-color="#5464AC"/>
</radialGradient>
<radialGradient id="paint7_radial_64_580" cx="0" cy="0" r="1" gradientUnits="userSpaceOnUse" gradientTransform="translate(771.689 -20.3976) scale(1049.8 1046.33)">
<stop stop-color="#D3CEE8"/>
<stop offset="0.3641" stop-color="#F3A3C0"/>
<stop offset="0.5422" stop-color="#CF86B6"/>
<stop offset="0.6455" stop-color="#BD79B1"/>
<stop offset="1" stop-color="#5464AC"/>
</radialGradient>
<radialGradient id="paint8_radial_64_580" cx="0" cy="0" r="1" gradientUnits="userSpaceOnUse" gradientTransform="translate(771.689 -20.3972) scale(1049.8 1046.33)">
<stop stop-color="#D3CEE8"/>
<stop offset="0.3641" stop-color="#F3A3C0"/>
<stop offset="0.5422" stop-color="#CF86B6"/>
<stop offset="0.6455" stop-color="#BD79B1"/>
<stop offset="1" stop-color="#5464AC"/>
</radialGradient>
<radialGradient id="paint9_radial_64_580" cx="0" cy="0" r="1" gradientUnits="userSpaceOnUse" gradientTransform="translate(771.689 -20.3971) scale(1049.8 1046.33)">
<stop stop-color="#D3CEE8"/>
<stop offset="0.3641" stop-color="#F3A3C0"/>
<stop offset="0.5422" stop-color="#CF86B6"/>
<stop offset="0.6455" stop-color="#BD79B1"/>
<stop offset="1" stop-color="#5464AC"/>
</radialGradient>
<radialGradient id="paint10_radial_64_580" cx="0" cy="0" r="1" gradientUnits="userSpaceOnUse" gradientTransform="translate(771.689 -20.3967) scale(1049.8 1046.33)">
<stop stop-color="#D3CEE8"/>
<stop offset="0.3641" stop-color="#F3A3C0"/>
<stop offset="0.5422" stop-color="#CF86B6"/>
<stop offset="0.6455" stop-color="#BD79B1"/>
<stop offset="1" stop-color="#5464AC"/>
</radialGradient>
<radialGradient id="paint11_radial_64_580" cx="0" cy="0" r="1" gradientUnits="userSpaceOnUse" gradientTransform="translate(771.689 -20.3969) scale(1049.8 1046.33)">
<stop stop-color="#D3CEE8"/>
<stop offset="0.3641" stop-color="#F3A3C0"/>
<stop offset="0.5422" stop-color="#CF86B6"/>
<stop offset="0.6455" stop-color="#BD79B1"/>
<stop offset="1" stop-color="#5464AC"/>
</radialGradient>
<radialGradient id="paint12_radial_64_580" cx="0" cy="0" r="1" gradientUnits="userSpaceOnUse" gradientTransform="translate(771.689 -20.3965) scale(1049.8 1046.33)">
<stop stop-color="#D3CEE8"/>
<stop offset="0.3641" stop-color="#F3A3C0"/>
<stop offset="0.5422" stop-color="#CF86B6"/>
<stop offset="0.6455" stop-color="#BD79B1"/>
<stop offset="1" stop-color="#5464AC"/>
</radialGradient>
<radialGradient id="paint13_radial_64_580" cx="0" cy="0" r="1" gradientUnits="userSpaceOnUse" gradientTransform="translate(771.689 -20.397) scale(1049.8 1046.33)">
<stop stop-color="#D3CEE8"/>
<stop offset="0.3641" stop-color="#F3A3C0"/>
<stop offset="0.5422" stop-color="#CF86B6"/>
<stop offset="0.6455" stop-color="#BD79B1"/>
<stop offset="1" stop-color="#5464AC"/>
</radialGradient>
<radialGradient id="paint14_radial_64_580" cx="0" cy="0" r="1" gradientUnits="userSpaceOnUse" gradientTransform="translate(771.689 -20.3974) scale(1049.8 1046.33)">
<stop stop-color="#D3CEE8"/>
<stop offset="0.3641" stop-color="#F3A3C0"/>
<stop offset="0.5422" stop-color="#CF86B6"/>
<stop offset="0.6455" stop-color="#BD79B1"/>
<stop offset="1" stop-color="#5464AC"/>
</radialGradient>
<clipPath id="clip0_64_580">
<rect width="768" height="1300" fill="white"/>
</clipPath>
</defs>
</svg>
