<svg width="1854" height="889" viewBox="0 0 1854 889" fill="none" xmlns="http://www.w3.org/2000/svg">
<g clip-path="url(#clip0_337_748)">
<rect width="1854" height="889" fill="#EEEEEE"/>
<path d="M951.846 586.544L1095.1 715.435C1098.23 717.345 1101.23 719.576 1104.04 722.126L1487.88 1067.9L1828.69 760.887C1830.31 758.99 1832.05 757.181 1833.94 755.469L2021.7 586.544C2105.02 512.085 2106.13 412.065 2079.46 344.276C2068.5 316.403 2050.78 287.588 2025.91 263.321C1990.32 229.694 1943.6 207.755 1892 203.783C1886.3 203.368 1880.46 203.148 1874.51 203.134C1753.66 203.427 1655.08 302.226 1655.08 423.179C1655.08 500.972 1695.07 572.096 1762.84 612.105C1791.73 628.775 1800.61 666.559 1783.95 695.455C1771.73 715.46 1751.73 725.461 1730.63 725.461C1720.62 725.461 1709.51 723.238 1699.52 716.572C1682.06 706.134 1665.71 694.204 1650.59 680.999C1648.68 679.648 1646.85 678.169 1645.08 676.563C1537.31 579.878 1502.88 436.514 1555.1 300.932C1607.3 165.35 1728.4 82 1872.83 82H1873.93C1883.31 82 1892.58 82.3826 1901.76 83.1314C2001.21 90.959 2088 139.086 2145.05 216.649C2188.91 274.058 2215 345.686 2215 423.179C2215 426.483 2214.74 429.707 2214.24 432.862C2212.27 524.032 2172.66 611.213 2100.57 676.563L1962.58 800.714C1959.87 804.849 1956.61 808.697 1952.82 812.145L1528.43 1194.44C1516.21 1204.45 1501.76 1210 1487.32 1210C1471.56 1210 1455.79 1204.03 1444.73 1192.1L1022.94 812.142C1021.13 810.495 1019.44 808.756 1017.87 806.938L872.961 676.563C765.196 579.878 730.76 436.514 782.978 300.932C835.195 166.46 956.283 82 1100.71 82H1101.83C1106.78 82 1111.71 82.1058 1116.61 82.3174C1121.07 82.5101 1125.5 82.7868 1129.91 83.1504C1229.21 91.0404 1315.87 139.121 1372.87 216.559C1416.77 273.984 1442.89 345.646 1442.89 423.179C1442.89 543.203 1379.57 655.449 1276.25 716.572C1266.25 723.238 1255.14 725.461 1244.03 725.461C1222.91 725.461 1202.92 715.46 1191.81 695.455C1175.14 666.559 1184.03 629.888 1212.92 612.105C1220.94 607.373 1228.57 602.202 1235.78 596.637C1238.37 594.635 1240.92 592.581 1243.42 590.475C1244.66 589.116 1245.97 587.803 1247.36 586.544C1256.7 578.195 1265 569.529 1272.35 560.622C1275.99 556.227 1279.38 551.771 1282.55 547.267C1305.53 513.762 1318.82 474.117 1320.5 432.23C1321.36 400.377 1315.25 370.005 1305.13 344.276C1294.14 316.329 1276.35 287.439 1251.37 263.132C1215.77 229.583 1169.07 207.706 1117.51 203.772C1111.86 203.362 1106.08 203.148 1100.18 203.134C979.338 203.425 880.74 302.224 880.74 423.179C880.74 427.91 880.208 432.512 879.188 436.918C881.857 487.653 902.362 541.727 951.846 586.544Z" fill="#DADADA"/>
</g>
<defs>
<clipPath id="clip0_337_748">
<rect width="1854" height="889" fill="white"/>
</clipPath>
</defs>
</svg>
