<svg width="768" height="1300" viewBox="0 0 768 1300" fill="none" xmlns="http://www.w3.org/2000/svg">
<g clip-path="url(#clip0_337_750)">
<rect width="768" height="1300" fill="#EEEEEE"/>
<path d="M263.846 554.544L407.099 683.435C410.234 685.345 413.229 687.576 416.039 690.126L799.885 1035.9L1140.69 728.887C1142.31 726.99 1144.05 725.181 1145.94 723.469L1333.7 554.544C1417.02 480.085 1418.13 380.065 1391.46 312.276C1380.5 284.403 1362.78 255.588 1337.91 231.321C1302.32 197.694 1255.6 175.755 1204 171.783C1198.3 171.368 1192.46 171.148 1186.51 171.134C1065.66 171.427 967.082 270.226 967.082 391.179C967.082 468.972 1007.07 540.096 1074.84 580.105C1103.73 596.775 1112.61 634.559 1095.95 663.455C1083.73 683.46 1063.73 693.461 1042.63 693.461C1032.62 693.461 1021.51 691.238 1011.52 684.572C994.064 674.134 977.714 662.204 962.59 648.999C960.681 647.648 958.848 646.169 957.079 644.563C849.314 547.878 814.878 404.514 867.096 268.932C919.302 133.35 1040.4 50 1184.83 50H1185.93C1195.31 50 1204.58 50.3826 1213.76 51.1314C1313.21 58.959 1400 107.086 1457.05 184.649C1500.91 242.058 1527 313.686 1527 391.179C1527 394.483 1526.74 397.707 1526.24 400.862C1524.27 492.032 1484.66 579.213 1412.57 644.563L1274.58 768.714C1271.87 772.849 1268.61 776.697 1264.82 780.145L840.428 1162.44C828.212 1172.45 813.761 1178 799.32 1178C783.556 1178 767.793 1172.03 756.726 1160.1L334.941 780.142C333.129 778.495 331.436 776.756 329.874 774.938L184.961 644.563C77.1956 547.878 42.7601 404.514 94.9775 268.932C147.195 134.46 268.283 50 412.708 50H413.826C418.784 50 423.709 50.1058 428.613 50.3174C433.072 50.5101 437.499 50.7868 441.914 51.1504C541.206 59.0404 627.87 107.121 684.872 184.559C728.768 241.984 754.893 313.646 754.893 391.179C754.893 511.203 691.566 623.449 588.249 684.572C578.246 691.238 567.136 693.461 556.026 693.461C534.914 693.461 514.919 683.46 503.809 663.455C487.145 634.559 496.03 597.888 524.922 580.105C532.939 575.373 540.566 570.202 547.781 564.637C550.374 562.635 552.924 560.581 555.419 558.475C556.656 557.116 557.968 555.803 559.357 554.544C568.698 546.195 576.998 537.529 584.354 528.622C587.988 524.227 591.384 519.771 594.552 515.267C617.531 481.762 630.821 442.117 632.503 400.23C633.36 368.377 627.252 338.005 617.129 312.276C606.139 284.329 588.346 255.439 563.371 231.132C527.775 197.583 481.069 175.706 429.514 171.772C423.861 171.362 418.078 171.148 412.176 171.134C291.338 171.425 192.74 270.224 192.74 391.179C192.74 395.91 192.208 400.512 191.188 404.918C193.857 455.653 214.362 509.727 263.846 554.544Z" fill="#DADADA"/>
</g>
<defs>
<clipPath id="clip0_337_750">
<rect width="768" height="1300" fill="white"/>
</clipPath>
</defs>
</svg>
