<svg width="768" height="1300" viewBox="0 0 768 1300" fill="none" xmlns="http://www.w3.org/2000/svg">
<g clip-path="url(#clip0_64_582)">
<rect width="768" height="1300" fill="#D2B193"/>
<g opacity="0.5" clip-path="url(#clip1_64_582)">
<path d="M384.5 308.182C524.642 308.182 638.25 194.538 638.25 54.3502C638.25 -85.8371 524.642 -199.481 384.5 -199.481C244.358 -199.481 130.75 -85.8371 130.75 54.3502C130.75 194.538 244.358 308.182 384.5 308.182Z" stroke="white" stroke-width="3.22734"/>
<path d="M164.752 435.098C304.894 435.098 418.502 321.454 418.502 181.266C418.502 41.0789 304.894 -72.5654 164.752 -72.5654C24.6097 -72.5654 -88.998 41.0789 -88.998 181.266C-88.998 321.454 24.6097 435.098 164.752 435.098Z" stroke="white" stroke-width="3.22734"/>
<path d="M164.752 688.929C304.894 688.929 418.502 575.285 418.502 435.097C418.502 294.91 304.894 181.266 164.752 181.266C24.6097 181.266 -88.998 294.91 -88.998 435.097C-88.998 575.285 24.6097 688.929 164.752 688.929Z" stroke="white" stroke-width="3.22734"/>
<path d="M384.5 815.845C524.642 815.845 638.25 702.201 638.25 562.013C638.25 421.826 524.642 308.182 384.5 308.182C244.358 308.182 130.75 421.826 130.75 562.013C130.75 702.201 244.358 815.845 384.5 815.845Z" stroke="white" stroke-width="3.22734"/>
<path d="M604.247 688.929C744.389 688.929 857.997 575.285 857.997 435.097C857.997 294.91 744.389 181.266 604.247 181.266C464.105 181.266 350.497 294.91 350.497 435.097C350.497 575.285 464.105 688.929 604.247 688.929Z" stroke="white" stroke-width="3.22734"/>
<path d="M604.247 435.098C744.389 435.098 857.997 321.454 857.997 181.266C857.997 41.0789 744.389 -72.5654 604.247 -72.5654C464.105 -72.5654 350.497 41.0789 350.497 181.266C350.497 321.454 464.105 435.098 604.247 435.098Z" stroke="white" stroke-width="3.22734"/>
<path d="M384.547 562.013C524.69 562.013 638.297 448.369 638.297 308.181C638.297 167.994 524.69 54.3496 384.547 54.3496C244.405 54.3496 130.797 167.994 130.797 308.181C130.797 448.369 244.405 562.013 384.547 562.013Z" stroke="white" stroke-width="3.22734"/>
<path d="M384.548 63.8694C389.803 63.8694 394.063 59.6077 394.063 54.3507C394.063 49.0937 389.803 44.832 384.548 44.832C379.293 44.832 375.032 49.0937 375.032 54.3507C375.032 59.6077 379.293 63.8694 384.548 63.8694Z" fill="white" stroke="white" stroke-width="3.22734"/>
<path d="M384.548 317.701C389.803 317.701 394.063 313.44 394.063 308.183C394.063 302.926 389.803 298.664 384.548 298.664C379.293 298.664 375.032 302.926 375.032 308.183C375.032 313.44 379.293 317.701 384.548 317.701Z" fill="white" stroke="white" stroke-width="3.22734"/>
<path d="M604.248 190.785C609.503 190.785 613.763 186.524 613.763 181.267C613.763 176.01 609.503 171.748 604.248 171.748C598.992 171.748 594.732 176.01 594.732 181.267C594.732 186.524 598.992 190.785 604.248 190.785Z" fill="white" stroke="white" stroke-width="3.22734"/>
<path d="M604.248 444.617C609.503 444.617 613.763 440.356 613.763 435.099C613.763 429.842 609.503 425.58 604.248 425.58C598.992 425.58 594.732 429.842 594.732 435.099C594.732 440.356 598.992 444.617 604.248 444.617Z" fill="white" stroke="white" stroke-width="3.22734"/>
<path d="M164.753 444.617C170.008 444.617 174.269 440.356 174.269 435.099C174.269 429.842 170.008 425.58 164.753 425.58C159.498 425.58 155.237 429.842 155.237 435.099C155.237 440.356 159.498 444.617 164.753 444.617Z" fill="white" stroke="white" stroke-width="3.22734"/>
<path d="M164.753 190.785C170.008 190.785 174.269 186.524 174.269 181.267C174.269 176.01 170.008 171.748 164.753 171.748C159.498 171.748 155.237 176.01 155.237 181.267C155.237 186.524 159.498 190.785 164.753 190.785Z" fill="white" stroke="white" stroke-width="3.22734"/>
<path d="M384.548 571.533C389.803 571.533 394.063 567.272 394.063 562.015C394.063 556.758 389.803 552.496 384.548 552.496C379.293 552.496 375.032 556.758 375.032 562.015C375.032 567.272 379.293 571.533 384.548 571.533Z" fill="white" stroke="white" stroke-width="3.22734"/>
<path d="M604.248 698.448C609.503 698.448 613.763 694.186 613.763 688.929C613.763 683.672 609.503 679.41 604.248 679.41C598.992 679.41 594.732 683.672 594.732 688.929C594.732 694.186 598.992 698.448 604.248 698.448Z" fill="white" stroke="white" stroke-width="3.22734"/>
<path d="M164.753 698.448C170.008 698.448 174.269 694.186 174.269 688.929C174.269 683.672 170.008 679.41 164.753 679.41C159.498 679.41 155.237 683.672 155.237 688.929C155.237 694.186 159.498 698.448 164.753 698.448Z" fill="white" stroke="white" stroke-width="3.22734"/>
</g>
</g>
<defs>
<clipPath id="clip0_64_582">
<rect width="768" height="1300" fill="white"/>
</clipPath>
<clipPath id="clip1_64_582">
<rect width="1015" height="1034.36" fill="white" transform="translate(-123 -209)"/>
</clipPath>
</defs>
</svg>
